<svg width="20" height="12" viewBox="0 0 20 12" fill="none" xmlns="http://www.w3.org/2000/svg">
<g clip-path="url(#clip0_4189:1185)">
<path d="M19.1196 0V12H0V0H19.1196Z" fill="#2E4593"/>
<path d="M19.1196 10.7368V12H17.11L11.2536 8.32536L10.6794 7.98086L9.99043 7.52153L9.76077 7.4067L9.07177 6.94737L8.78469 6.77512L8.55502 6.66029L8.09569 6.37321L7.98086 6.25837L7.7512 6.14354L5.68421 4.82297L4.76555 4.2488L0 1.26316V0H0.0574163H2.00957L7.98086 3.78947L8.55502 4.13397L8.72727 4.2488L9.64593 4.82297L9.76077 4.88038L10.1053 5.11005L10.6794 5.45455L10.7943 5.51196L11.2536 5.85646L11.7703 6.14354L13.0335 6.94737L13.9522 7.52153L19.1196 10.7368Z" fill="#FCF5FF"/>
<path d="M19.1196 11.9426V12H17.8565L11.2536 7.86603L10.6794 7.52153L10.1053 7.17703L9.76077 6.94737L9.12919 6.54545L8.55502 6.20096L8.49761 6.14354L8.09569 5.91388L7.98086 5.79904L6.37321 4.82297L5.45455 4.2488L0 0.803828V0H0.0574163L6.77512 4.2488L7.7512 4.82297L7.98086 4.99521L8.55502 5.33971L8.78469 5.51196L9.12919 5.74163L9.81818 6.14354L10.6794 6.66029L10.7943 6.7177L11.0813 6.94737L11.2536 7.0622L12 7.52153L19.1196 11.9426Z" fill="#F42525"/>
<path d="M19.1196 0.287081V1.49282L14.756 4.2488L13.8373 4.82297L11.7703 6.14354L11.2536 6.43062L10.7943 6.7177L10.6794 6.77512L10.4498 6.94737L10.1053 7.17703L9.76077 7.4067L9.5311 7.52153L8.55502 8.09569L7.98086 8.49761L2.35407 12H0V10.9665L5.56938 7.52153L6.48804 6.94737L7.7512 6.14354L7.98086 5.97129L8.09569 5.91388L8.55502 5.62679L8.78469 5.51196L9.76077 4.88038L9.8756 4.82297L10.6794 4.30622L10.7943 4.2488L11.2536 3.96172L17.512 0H18.9474L19.1196 0.287081Z" fill="#FCF5FF"/>
<path d="M19.0622 0.344498L12.8038 4.2488L11.8852 4.82297L11.2536 5.22488L10.7943 5.51196L10.6794 5.56938L9.81818 6.14354L9.12919 6.54545L8.78469 6.77512L8.55502 6.88995L8.49761 6.94737L7.98086 7.29187L7.57895 7.52153L0.45933 12H0V11.4258L6.25837 7.52153L7.17703 6.94737L7.98086 6.43062L8.09569 6.37321L8.49761 6.14354L8.55502 6.08612L9.12919 5.74163L10.1053 5.11005L10.5646 4.82297L10.6794 4.76555L11.2536 4.36364L11.4833 4.2488L18.201 0H18.89H19.1196V0.287081L19.0622 0.344498Z" fill="#F42525"/>
<path d="M19.1196 4.24878H0V7.52151H19.1196V4.24878Z" fill="white"/>
<path d="M19.1196 4.823H0V6.9474H19.1196V4.823Z" fill="#F42525"/>
<path d="M10.6795 0H8.55505V12H10.6795V0Z" fill="#CD002A"/>
<path d="M10.6794 7.52153H11.2536V12H7.98083V7.52153H8.555V4.2488H7.98083V0H11.2536V4.2488H10.6794V7.52153Z" fill="white"/>
<path d="M10.6794 0H8.55499V12H10.6794V0Z" fill="#F42525"/>
</g>
<defs>
<clipPath id="clip0_4189:1185">
<rect width="19.1196" height="12" fill="white"/>
</clipPath>
</defs>
</svg>
