<svg width="171" height="50" viewBox="0 0 171 50" fill="none" xmlns="http://www.w3.org/2000/svg">
<path d="M0.909119 26.9592H7.07807V11.5987L12.7814 26.9592H17.7476L23.4122 11.5987V26.9592H29.5811V1.37147H22.3646L15.3421 19.0831L8.20322 1.37147H0.909119V26.9592ZM53.9465 6.62226H47.7776V17.6724C47.7776 20.4545 46.2645 21.9828 43.8978 21.9828C41.5699 21.9828 40.0179 20.4545 40.0179 17.6724V6.62226H33.8878V18.4953C33.8878 23.942 37.0304 27.1552 41.6862 27.1552C44.4021 27.1552 46.5748 25.9013 47.7776 24.1771V26.9592H53.9465V6.62226ZM57.128 16.7712C57.128 23.1975 61.0467 27.2727 66.0128 27.2727C68.9615 27.2727 71.0954 25.9404 72.2206 24.0596V26.9592H78.3895V0H72.2206V9.44357C70.979 7.60188 68.6899 6.34796 66.0128 6.34796C61.0855 6.34796 57.128 10.3448 57.128 16.7712ZM72.2206 16.8103C72.2206 20.0627 70.1643 21.826 67.8364 21.826C65.5085 21.826 63.4522 19.9843 63.4522 16.7712C63.4522 13.558 65.5085 11.7555 67.7976 11.7555C70.1643 11.7555 72.2206 13.558 72.2206 16.8103ZM81.6098 16.7712C81.6098 23.1975 85.5285 27.2727 90.4947 27.2727C93.4433 27.2727 95.5772 25.9404 96.7024 24.0596V26.9592H102.871V0H96.7024V9.44357C95.4608 7.60188 93.1717 6.34796 90.4947 6.34796C85.5673 6.34796 81.6098 10.3448 81.6098 16.7712ZM96.7024 16.8103C96.7024 20.0627 94.6461 21.826 92.3182 21.826C89.9903 21.826 87.934 19.9843 87.934 16.7712C87.934 13.558 89.9903 11.7555 92.3182 11.7555C94.6461 11.7555 96.7024 13.558 96.7024 16.8103ZM107.333 26.9592H113.502V0H107.333V26.9592ZM126.849 11.3245C128.905 11.3245 130.651 12.6176 130.651 14.8119H122.93C123.279 12.5784 124.831 11.3245 126.849 11.3245ZM136.51 20.2194H129.953C129.448 21.3166 128.478 22.1787 126.732 22.1787C124.754 22.1787 123.124 20.9248 122.891 18.2602H136.859C136.936 17.6332 136.975 17.0063 136.975 16.4577C136.975 10.2665 132.824 6.30878 126.926 6.30878C120.951 6.30878 116.761 10.3056 116.761 16.7712C116.761 23.2367 121.029 27.2335 126.926 27.2335C131.931 27.2727 135.501 24.2163 136.51 20.2194ZM146.403 17.5157C146.403 14.0282 148.11 13.0094 151.02 13.0094H152.727V6.42633C150.011 6.42633 147.839 7.87618 146.403 10.0313V6.66144H140.234V26.9984H146.403V17.5157Z" fill="#145290"/>
<path d="M14.385 41.0839C14.1906 41.2424 14.0351 41.4405 13.9573 41.6783C13.8796 41.8368 13.8018 41.916 13.724 41.916C13.6852 41.916 13.6074 41.916 13.4908 41.8764C11.0803 41.1235 9.1364 39.8951 7.73679 38.31C7.73679 39.1818 7.77566 40.1328 7.81454 41.1235C7.85342 41.8764 7.85342 42.2331 7.85342 42.2727C7.85342 42.3519 7.81454 42.3916 7.73679 42.3916H6.95922C6.88146 42.3916 6.84258 42.3519 6.84258 42.2727C6.84258 42.2331 6.84258 41.9953 6.88146 41.5594C6.92034 40.331 6.95922 39.2214 6.95922 38.31C5.71511 39.8158 3.88783 41.0046 1.39962 41.8368C1.28298 41.8764 1.20523 41.8764 1.16635 41.8764C1.08859 41.8764 1.01084 41.7972 0.93308 41.6386C0.816445 41.4009 0.660931 41.2028 0.505418 41.0839C1.86616 40.7272 2.95475 40.2913 3.88783 39.8158C4.74316 39.3403 5.52072 38.7855 6.22053 38.1118H3.57681L1.36074 38.1911C1.28298 38.1911 1.24411 38.1515 1.24411 38.0722V37.3986C1.24411 37.3193 1.28298 37.2797 1.36074 37.2797L3.57681 37.3193H6.80371V37.0023C6.80371 36.289 6.76483 35.7342 6.72595 35.338C7.11473 35.338 7.46464 35.3776 7.77566 35.4172C7.93118 35.4568 7.97006 35.4965 7.97006 35.5757C7.97006 35.6153 7.97006 35.655 7.93118 35.7342C7.8923 35.8135 7.8923 35.8531 7.8923 35.8927C7.81454 36.0909 7.77566 36.4475 7.77566 36.923V37.3193H11.2747L13.4519 37.2797C13.5297 37.2797 13.5685 37.3193 13.5685 37.3986V38.0722C13.5685 38.1515 13.5297 38.1911 13.4519 38.1911L11.2747 38.1515H8.47547C9.3308 38.9044 10.2639 39.5384 11.2747 40.0139C12.0523 40.4102 13.102 40.7669 14.385 41.0839ZM14.9293 47.9394C14.7349 48.0979 14.6182 48.296 14.5016 48.4941C14.4239 48.6526 14.3461 48.7319 14.3072 48.7319C14.2683 48.7319 14.1906 48.6923 14.1128 48.613C12.6743 47.6223 11.6246 46.4335 10.8859 45.0069C10.8859 46.1561 10.9248 47.3449 10.9248 48.5338V49.4848C10.9248 49.6433 10.9248 49.7622 10.9248 49.8018C10.9248 49.8811 10.8859 49.9207 10.8082 49.9207H10.1472C10.0695 49.9207 10.0306 49.8811 10.0306 49.8018C10.0306 49.7622 10.0306 49.247 10.0695 48.1771C10.0695 47.0676 10.1084 45.9976 10.1084 44.9673C9.40855 46.5128 8.35884 47.7808 6.92034 48.7319C6.80371 48.8111 6.72595 48.8508 6.68707 48.8508C6.64819 48.8508 6.57044 48.7715 6.49268 48.6526C6.37604 48.4545 6.25941 48.3356 6.06502 48.1771C7.65903 47.2261 8.86426 45.958 9.75846 44.3729H9.60295L7.65903 44.4125C7.58127 44.4125 7.54239 44.3729 7.54239 44.254V43.62C7.54239 43.5407 7.58127 43.5011 7.65903 43.5011L9.60295 43.5407H10.1084V43.0256C10.1084 42.3519 10.0695 41.8764 10.0306 41.5594C10.225 41.5594 10.536 41.599 10.9637 41.6386C11.0414 41.6386 11.1192 41.6783 11.1192 41.7575C11.1192 41.8368 11.0803 41.916 11.0414 41.9953C11.0026 42.1142 10.9637 42.4708 10.9637 42.986V43.5407H12.3633L14.3072 43.5011C14.385 43.5011 14.4239 43.5407 14.4239 43.62V44.254C14.4239 44.3333 14.385 44.4125 14.3072 44.4125L12.3633 44.3729H11.197C12.1689 45.958 13.413 47.1468 14.9293 47.9394ZM6.84258 46.592C6.72595 46.7109 6.60931 46.8694 6.49268 47.0676C6.41492 47.1864 6.37604 47.2657 6.29829 47.2657C6.25941 47.2657 6.18165 47.2261 6.06502 47.1072C5.32633 46.4731 4.74316 45.7599 4.31549 44.9673C4.35437 46.1165 4.35437 47.3053 4.39325 48.5338C4.39325 49.3263 4.43213 49.7622 4.43213 49.8018C4.43213 49.8811 4.39325 49.9207 4.31549 49.9207H3.61568C3.53793 49.9207 3.49905 49.8811 3.49905 49.8018C3.49905 49.7622 3.53793 48.1771 3.57681 45.0862C2.877 46.5128 1.98279 47.7016 0.855323 48.6526C0.738688 48.7319 0.660931 48.7715 0.622053 48.7715C0.583175 48.7715 0.505418 48.6923 0.427662 48.5734C0.349905 48.3752 0.194392 48.2167 0 48.0582C1.28298 47.1468 2.37158 45.8787 3.2269 44.3729H2.41046L0.583175 44.4125C0.505418 44.4125 0.46654 44.3729 0.46654 44.254V43.62C0.46654 43.5407 0.505418 43.5011 0.583175 43.5011L2.41046 43.5407H3.53793V43.0652C3.53793 42.3519 3.49905 41.8764 3.42129 41.5594C3.81008 41.5594 4.1211 41.599 4.35437 41.6386C4.47101 41.6783 4.54876 41.7179 4.54876 41.7575C4.54876 41.7972 4.50988 41.8764 4.47101 41.9953C4.43213 42.1142 4.39325 42.4708 4.39325 43.0652V43.5407H4.82091L6.64819 43.5011C6.72595 43.5011 6.76483 43.5407 6.76483 43.62V44.254C6.76483 44.3333 6.72595 44.4125 6.64819 44.4125L4.82091 44.3729H4.62652C5.20969 45.2843 5.94838 46.0372 6.84258 46.592ZM30.7916 47.8205C30.5972 48.0186 30.4806 48.2564 30.364 48.4941C30.3251 48.6526 30.2473 48.6923 30.2085 48.6923C30.1696 48.6923 30.0918 48.6526 29.9752 48.613C28.0701 47.5827 26.6316 46.1561 25.6208 44.3333C25.6208 45.3636 25.6208 46.592 25.6597 48.0186C25.6986 49.0885 25.6986 49.6829 25.6986 49.8018C25.6986 49.8811 25.6597 49.9207 25.5819 49.9207H24.8432C24.7655 49.9207 24.7266 49.8811 24.7266 49.8018C24.7266 49.6829 24.7266 48.9697 24.7655 47.5827C24.8044 46.3543 24.8044 45.2843 24.8044 44.3729C23.8713 46.1561 22.4328 47.5827 20.5278 48.6526C20.4111 48.7319 20.3334 48.7319 20.2945 48.7319C20.2167 48.7319 20.139 48.6526 20.0612 48.4941C19.9446 48.296 19.7891 48.1375 19.5947 47.979C21.6163 47.0676 23.1715 45.6806 24.2212 43.8974H22.4717L20.2167 43.937C20.139 43.937 20.1001 43.8974 20.1001 43.8181V43.1445C20.1001 43.0652 20.139 43.0256 20.2167 43.0256L22.4717 43.0652H24.7266V41.1631H23.7158L21.6941 41.2028C21.6163 41.2028 21.5775 41.1631 21.5775 41.0839L21.6163 39.6573V37.8741L21.5775 36.4871C21.5775 36.4079 21.6163 36.3683 21.6941 36.3683L23.7158 36.4079H26.826L28.8088 36.3683C28.8866 36.3683 28.9255 36.4079 28.9255 36.4871L28.8866 37.8741V39.6573L28.9255 41.0839C28.9255 41.1631 28.8866 41.2028 28.8088 41.2028L26.826 41.1631H25.6597V43.0652H28.109L30.364 43.0256C30.4417 43.0256 30.4806 43.0652 30.4806 43.1445V43.8181C30.4806 43.8974 30.4417 43.937 30.364 43.937L28.109 43.8974H26.0874C26.7094 44.8484 27.4092 45.641 28.2257 46.275C28.8866 46.8298 29.7419 47.3449 30.7916 47.8205ZM27.9535 40.331V37.2004H22.5494V40.331H27.9535ZM20.6444 35.8531C20.6444 35.9324 20.6055 36.0116 20.5278 36.0909C20.4111 36.1701 20.3334 36.3683 20.1778 36.7249C19.7891 37.7156 19.4392 38.5874 19.0115 39.3799V47.3846L19.0504 49.8811C19.0504 49.9603 19.0115 50 18.9337 50H18.1562C18.0784 50 18.0395 49.9603 18.0395 49.8811L18.0784 47.3846V43.303C18.0784 42.8275 18.0784 42.0349 18.1173 40.965C17.6896 41.6386 17.2231 42.2727 16.7566 42.8671C16.6788 42.9463 16.601 43.0256 16.5622 43.0256C16.5233 43.0256 16.4844 42.9463 16.4066 42.8275C16.29 42.5501 16.1345 42.3519 15.979 42.1934C17.4564 40.4895 18.545 38.5874 19.2448 36.4475C19.3614 36.0116 19.4392 35.655 19.478 35.3776C19.8668 35.4965 20.2167 35.5757 20.45 35.7342C20.6055 35.7342 20.6444 35.8135 20.6444 35.8531ZM37.1288 37.9137C37.0899 37.0023 37.0899 36.289 37.0899 35.7738H38.2174V37.8741C39.5004 37.8345 40.7834 37.7156 42.0663 37.5571V38.5477C40.9 38.7062 39.617 38.7855 38.2563 38.8251L38.2951 41.1631C39.7725 41.0839 40.9777 41.0046 41.9886 40.8461V41.8368C40.8222 41.9557 39.5781 42.0745 38.2951 42.1142C38.2951 42.3916 38.334 42.9463 38.3729 43.7785C38.4118 44.3729 38.4118 44.8088 38.4118 45.1655C40.0835 45.7995 41.4832 46.7109 42.6495 47.8997L41.8719 48.8904C40.7834 47.7016 39.6559 46.8298 38.4507 46.275V46.4335C38.4507 48.3356 37.5176 49.2867 35.6514 49.2867C34.6017 49.2867 33.8241 49.0885 33.3576 48.6923C32.8911 48.3356 32.6578 47.7808 32.6578 47.0279C32.6578 46.3146 32.9688 45.7599 33.552 45.3636C34.0963 44.9673 34.7961 44.7692 35.6514 44.7692C36.3512 44.7692 36.8955 44.8088 37.3232 44.8881C37.2843 44.2144 37.2454 43.303 37.2066 42.0745C35.8069 42.1142 34.4462 42.1142 33.0466 42.0745V41.0839C34.3296 41.1235 35.7292 41.1235 37.1677 41.0839C37.1288 40.8065 37.1288 40.3706 37.1288 39.8158C37.1288 39.3007 37.0899 38.944 37.0899 38.7062C35.4959 38.7459 34.0574 38.7459 32.7744 38.6666V37.6759C34.0963 37.9137 35.5348 37.9533 37.1288 37.9137ZM37.3232 46.0769C36.7789 45.9184 36.2735 45.8787 35.7681 45.8787C34.3684 45.8787 33.6686 46.3146 33.6686 47.1468C33.6686 47.979 34.2907 48.3752 35.5348 48.3752C36.7011 48.3752 37.2843 47.662 37.2843 46.1958V46.0769H37.3232ZM48.7145 41.1235C49.8031 40.4498 51.0472 39.7762 52.4469 39.0233L53.03 40.0536C50.7751 41.1631 49.1033 42.1142 47.937 42.9463C46.654 43.8974 45.993 44.9277 45.993 46.0769C45.993 47.4638 47.0816 48.1771 49.2588 48.1771C50.3863 48.1771 51.6693 48.1375 53.1078 48.0186V49.1678C51.3194 49.2074 49.9975 49.247 49.1811 49.247C46.3041 49.247 44.8656 48.1771 44.8656 46.0373C44.8656 44.4125 45.7987 42.986 47.6648 41.7575C47.2372 40.0932 46.8095 38.1515 46.4207 35.9324L47.5871 35.8927C47.937 37.7156 48.2869 39.4592 48.7145 41.1235ZM51.0084 35.4965L51.8248 35.1794C52.1358 35.7342 52.5246 36.6456 52.9911 37.9137L52.1358 38.2703C51.747 37.1212 51.3583 36.1701 51.0084 35.4965ZM52.7968 34.9417L53.5743 34.6643C53.9631 35.3379 54.3519 36.2494 54.7018 37.3193L53.8854 37.6759C53.5743 36.5664 53.1855 35.655 52.7968 34.9417ZM59.8726 40.0536C59.0562 43.5011 58.0453 46.5128 56.879 49.1678L55.8293 48.7319C57.0345 46.1958 58.0065 43.3426 58.7451 40.1328C58.0842 40.1724 57.1123 40.2517 55.8293 40.4102L55.7515 39.3799C56.1403 39.3403 56.7235 39.3007 57.4622 39.261C58.162 39.2214 58.6674 39.1818 58.9395 39.1421C59.1339 38.2307 59.3283 37.1608 59.5616 35.9324L60.6891 36.0909C60.4558 37.3193 60.2614 38.3496 60.067 39.1025C60.6502 39.0629 61.1945 39.0233 61.6999 39.0233C62.3608 39.0233 62.8662 39.261 63.1384 39.6969C63.4494 40.1724 63.6049 40.9254 63.6049 41.9953C63.6049 44.6899 63.4494 46.6317 63.0995 47.7808C62.944 48.3356 62.7107 48.7319 62.3608 48.93C62.0498 49.1282 61.661 49.247 61.1556 49.247C60.6113 49.247 60.067 49.2074 59.5227 49.1282L59.3283 47.979C59.9115 48.0979 60.378 48.1771 60.7279 48.1771C61.1167 48.1771 61.3889 48.1375 61.5833 48.0186C61.7388 47.8997 61.8943 47.7016 61.972 47.4638C62.3219 46.3939 62.4775 44.6503 62.4775 42.1538C62.4775 41.2424 62.3997 40.648 62.2442 40.3706C62.0887 40.1328 61.8554 40.0139 61.4666 40.0139C61.0001 39.9743 60.4558 40.0139 59.8726 40.0536ZM63.916 37.9137L64.9268 37.4382C65.9765 39.1818 66.7541 41.1235 67.3372 43.2634L66.2098 43.7389C65.7044 41.5198 64.9268 39.578 63.916 37.9137ZM75.1518 40.6083L74.5297 42.0349C73.1301 44.4918 71.3806 46.4335 69.2812 47.9394L68.5036 47.0676C71.0696 45.2051 72.9746 42.7482 74.2576 39.7762H68.8924V38.7062H74.8796L74.763 35.8531H75.9682L76.0849 38.7062H79.1174V39.7762H76.1237L76.4737 49.4452H75.2684L75.0352 42.5897L75.1518 40.6083ZM81.0613 37.0023H89.8478C89.8089 40.8857 89.148 43.7785 87.7872 45.7202C86.6598 47.3053 84.8714 48.5734 82.422 49.4848L81.7611 48.4941C84.1716 47.6223 85.9211 46.3543 86.9319 44.7296C87.9816 43.1048 88.4871 40.8857 88.4871 38.0722H81.0613V37.0023ZM95.8351 42.7086C94.7853 43.4615 93.5412 44.2144 92.1027 44.9673L91.4418 44.0559C94.4743 42.5897 96.8848 40.648 98.7509 38.2703L99.7229 39.0233C98.8676 40.0932 97.9734 41.0046 97.0014 41.7972V49.4848H95.8351V42.7086ZM101.55 41.0046L102.094 40.0139C103.961 40.7669 105.244 41.3216 105.827 41.6783L105.244 42.7482C104.388 42.2331 103.144 41.6387 101.55 41.0046ZM102.989 37.5174L103.572 36.5664C105.127 37.2004 106.371 37.7948 107.188 38.3496L106.565 39.4195C105.71 38.7855 104.505 38.1911 102.989 37.5174ZM111.348 38.5874L112.436 39.2214C112.125 40.4895 111.697 41.7179 111.114 42.8671C110.609 43.937 110.026 44.8088 109.442 45.4428C107.887 47.1864 105.749 48.3356 103.105 48.93L102.444 47.8997C104.933 47.4638 106.954 46.3939 108.509 44.6503C109.831 43.2634 110.764 41.2424 111.348 38.5874ZM117.801 40.9254L122.778 39.9347L123.361 40.4498C122.933 42.3123 122.195 44.0163 121.145 45.5221L120.173 44.9277C121.028 43.6596 121.65 42.3916 121.961 41.0839L118.035 41.8764L119.551 49.2074L118.423 49.4848L116.868 42.1142L114.302 42.6293L114.069 41.6386L116.674 41.1235L116.13 38.5081L117.296 38.2703L117.801 40.9254ZM131.914 47.4638C133.625 46.275 135.024 44.4125 136.074 41.8764L136.891 42.9463C135.53 45.7599 133.703 47.8997 131.409 49.3263L130.709 48.9697V36.3286H131.914V47.4638ZM128.532 36.4475C128.532 39.5384 128.493 41.7575 128.376 43.1048C128.298 44.254 128.143 45.1655 127.91 45.8391C127.482 47.1864 126.704 48.3356 125.577 49.3263L124.644 48.5734C125.655 47.8205 126.393 46.7505 126.821 45.3636C127.015 44.6899 127.132 43.5804 127.21 42.0349C127.249 40.8461 127.288 38.9836 127.288 36.4475H128.532ZM138.407 36.7249H148.787C148.593 38.1911 148.282 39.3799 147.815 40.331C147.388 41.2424 146.727 42.0349 145.91 42.7878L144.977 41.9953C145.677 41.4009 146.221 40.7272 146.649 39.9347C147.038 39.2214 147.271 38.5477 147.31 37.8345H138.407V36.7249ZM138.873 48.4545C140.234 47.7808 141.206 46.9487 141.75 45.9976C142.334 44.9673 142.606 43.5407 142.606 41.6783V39.1025H143.811V41.7179C143.811 43.937 143.383 45.6806 142.528 46.9487C141.906 47.8601 140.934 48.6526 139.612 49.3659L138.873 48.4545ZM159.362 38.1118C159.246 41.0839 158.701 43.3426 157.807 45.0069C156.68 47.0279 154.736 48.5338 151.975 49.5244L151.314 48.5338C153.725 47.662 155.474 46.3939 156.485 44.7692C157.535 43.1445 158.04 40.9254 158.04 38.1118H150.615V37.0023H158.274C158.196 36.8042 158.157 36.606 158.157 36.3683C158.157 35.8135 158.351 35.3776 158.74 35.0209C159.09 34.7039 159.479 34.5454 159.945 34.5454C160.49 34.5454 160.917 34.7435 161.267 35.1398C161.578 35.4965 161.734 35.8927 161.734 36.3683C161.734 36.923 161.539 37.3589 161.151 37.7156C160.801 38.0326 160.412 38.1911 159.945 38.1911C159.751 38.1911 159.557 38.1515 159.362 38.1118ZM159.945 35.2587C159.595 35.2587 159.323 35.3776 159.129 35.6153C158.935 35.8135 158.857 36.0909 158.857 36.3683C158.857 36.7249 158.973 37.0023 159.207 37.2004C159.401 37.3986 159.673 37.4778 159.945 37.4778C160.295 37.4778 160.567 37.3589 160.762 37.1212C160.956 36.923 161.034 36.6456 161.034 36.3683C161.034 36.0116 160.917 35.7342 160.684 35.5361C160.451 35.338 160.218 35.2587 159.945 35.2587ZM165.155 36.3286V44.2937H163.911V36.3286H165.155ZM164.689 48.4941C166.594 48.0582 167.915 47.3846 168.654 46.3939C169.315 45.4428 169.665 44.0559 169.665 42.1538V36.2097H170.909V42.3123C170.909 44.6503 170.404 46.3939 169.354 47.5035C168.499 48.4149 167.138 49.0885 165.272 49.4848L164.689 48.4941Z" fill="#145290"/>
</svg>
