<svg width="247" height="72" viewBox="0 0 247 72" fill="none" xmlns="http://www.w3.org/2000/svg">
<path d="M1.30908 38.8213H10.1924V16.7022L18.4052 38.8213H25.5565L33.7135 16.7022V38.8213H42.5968V1.97492H32.205L22.0926 27.4796L11.8126 1.97492H1.30908V38.8213ZM77.683 9.53605H68.7997V25.4483C68.7997 29.4545 66.6208 31.6552 63.2127 31.6552C59.8605 31.6552 57.6258 29.4545 57.6258 25.4483V9.53605H48.7983V26.6332C48.7983 34.4765 53.3238 39.1035 60.0282 39.1035C63.939 39.1035 67.0677 37.2978 68.7997 34.815V38.8213H77.683V9.53605ZM82.2643 24.1505C82.2643 33.4044 87.9071 39.2727 95.0585 39.2727C99.3046 39.2727 102.377 37.3542 103.998 34.6458V38.8213H112.881V0H103.998V13.5987C102.21 10.9467 98.9135 9.14107 95.0585 9.14107C87.963 9.14107 82.2643 14.8966 82.2643 24.1505ZM103.998 24.2069C103.998 28.8903 101.037 31.4295 97.6843 31.4295C94.3322 31.4295 91.3711 28.7774 91.3711 24.1505C91.3711 19.5235 94.3322 16.9279 97.6285 16.9279C101.037 16.9279 103.998 19.5235 103.998 24.2069ZM117.518 24.1505C117.518 33.4044 123.161 39.2727 130.312 39.2727C134.558 39.2727 137.631 37.3542 139.251 34.6458V38.8213H148.135V0H139.251V13.5987C137.464 10.9467 134.167 9.14107 130.312 9.14107C123.217 9.14107 117.518 14.8966 117.518 24.1505ZM139.251 24.2069C139.251 28.8903 136.29 31.4295 132.938 31.4295C129.586 31.4295 126.625 28.7774 126.625 24.1505C126.625 19.5235 129.586 16.9279 132.938 16.9279C136.29 16.9279 139.251 19.5235 139.251 24.2069ZM154.56 38.8213H163.443V0H154.56V38.8213ZM182.662 16.3072C185.623 16.3072 188.137 18.1693 188.137 21.3292H177.019C177.522 18.1129 179.757 16.3072 182.662 16.3072ZM196.574 29.116H187.132C186.405 30.6959 185.009 31.9373 182.495 31.9373C179.645 31.9373 177.299 30.1317 176.963 26.2947H197.077C197.188 25.3918 197.244 24.489 197.244 23.6991C197.244 14.7837 191.266 9.08464 182.774 9.08464C174.17 9.08464 168.136 14.8401 168.136 24.1505C168.136 33.4608 174.282 39.2163 182.774 39.2163C189.981 39.2727 195.121 34.8715 196.574 29.116ZM210.82 25.2226C210.82 20.2006 213.279 18.7335 217.469 18.7335H219.927V9.25392C216.016 9.25392 212.888 11.3417 210.82 14.4451V9.59248H201.937V38.8777H210.82V25.2226Z" fill="white"/>
<path d="M20.7144 59.1608C20.4344 59.3891 20.2105 59.6744 20.0985 60.0168C19.9866 60.245 19.8746 60.3592 19.7626 60.3592C19.7066 60.3592 19.5947 60.3592 19.4267 60.3021C15.9557 59.2179 13.1564 57.4489 11.141 55.1664C11.141 56.4218 11.197 57.7913 11.2529 59.2179C11.3089 60.3021 11.3089 60.8157 11.3089 60.8727C11.3089 60.9869 11.2529 61.0439 11.141 61.0439H10.0213C9.90931 61.0439 9.85332 60.9869 9.85332 60.8727C9.85332 60.8157 9.85332 60.4733 9.90931 59.8456C9.96529 58.0766 10.0213 56.4789 10.0213 55.1664C8.22976 57.3348 5.59848 59.0467 2.01545 60.245C1.8475 60.3021 1.73553 60.3021 1.67954 60.3021C1.56757 60.3021 1.4556 60.188 1.34363 59.9597C1.17568 59.6173 0.951741 59.332 0.727802 59.1608C2.68727 58.6473 4.25484 58.0196 5.59848 57.3348C6.83014 56.6501 7.94984 55.8512 8.95756 54.8811H5.1506L1.95947 54.9952C1.8475 54.9952 1.79151 54.9382 1.79151 54.8241V53.854C1.79151 53.7399 1.8475 53.6828 1.95947 53.6828L5.1506 53.7399H9.79734V53.2834C9.79734 52.2562 9.74135 51.4573 9.68537 50.8867C10.2452 50.8867 10.7491 50.9438 11.197 51.0008C11.4209 51.0579 11.4769 51.115 11.4769 51.2291C11.4769 51.2862 11.4769 51.3432 11.4209 51.4573C11.3649 51.5715 11.3649 51.6285 11.3649 51.6856C11.2529 51.9709 11.197 52.4845 11.197 53.1692V53.7399H16.2356L19.3707 53.6828C19.4827 53.6828 19.5387 53.7399 19.5387 53.854V54.8241C19.5387 54.9382 19.4827 54.9952 19.3707 54.9952L16.2356 54.9382H12.2047C13.4363 56.0224 14.78 56.9354 16.2356 57.6201C17.3553 58.1908 18.8669 58.7043 20.7144 59.1608ZM21.4982 69.0327C21.2182 69.261 21.0503 69.5463 20.8823 69.8316C20.7704 70.0599 20.6584 70.174 20.6024 70.174C20.5464 70.174 20.4344 70.1169 20.3225 70.0028C18.251 68.5762 16.7394 66.8643 15.6757 64.8101C15.6757 66.4649 15.7317 68.1768 15.7317 69.8887V71.2582C15.7317 71.4864 15.7317 71.6576 15.7317 71.7147C15.7317 71.8288 15.6757 71.8859 15.5638 71.8859H14.612C14.5001 71.8859 14.4441 71.8288 14.4441 71.7147C14.4441 71.6576 14.4441 70.9158 14.5001 69.3751C14.5001 67.7773 14.556 66.2366 14.556 64.753C13.5483 66.9785 12.0367 68.8045 9.96529 70.174C9.79734 70.2881 9.68537 70.3452 9.62938 70.3452C9.5734 70.3452 9.46143 70.231 9.34946 70.0599C9.1815 69.7745 9.01355 69.6034 8.73363 69.3751C11.029 68.0056 12.7645 66.1796 14.0522 63.8971H13.8282L11.029 63.9541C10.917 63.9541 10.861 63.8971 10.861 63.7259V62.8129C10.861 62.6987 10.917 62.6417 11.029 62.6417L13.8282 62.6987H14.556V61.9569C14.556 60.9868 14.5001 60.3021 14.4441 59.8456C14.724 59.8456 15.1719 59.9027 15.7877 59.9597C15.8997 59.9597 16.0116 60.0168 16.0116 60.1309C16.0116 60.245 15.9557 60.3592 15.8997 60.4733C15.8437 60.6445 15.7877 61.158 15.7877 61.8999V62.6987H17.8032L20.6024 62.6417C20.7144 62.6417 20.7704 62.6987 20.7704 62.8129V63.7259C20.7704 63.84 20.7144 63.9541 20.6024 63.9541L17.8032 63.8971H16.1236C17.5232 66.1796 19.3147 67.8915 21.4982 69.0327ZM9.85332 67.0926C9.68537 67.2638 9.51741 67.492 9.34946 67.7773C9.23749 67.9485 9.1815 68.0627 9.06953 68.0627C9.01355 68.0627 8.90158 68.0056 8.73363 67.8344C7.66991 66.9214 6.83014 65.8943 6.21431 64.753C6.2703 66.4078 6.2703 68.1197 6.32628 69.8887C6.32628 71.0299 6.38227 71.6576 6.38227 71.7147C6.38227 71.8288 6.32628 71.8859 6.21431 71.8859H5.20658C5.09461 71.8859 5.03863 71.8288 5.03863 71.7147C5.03863 71.6576 5.09461 69.3751 5.1506 64.9242C4.14287 66.9785 2.85522 68.6903 1.23167 70.0599C1.06371 70.174 0.951741 70.231 0.895756 70.231C0.839772 70.231 0.727802 70.1169 0.615833 69.9457C0.503863 69.6604 0.279924 69.4322 0 69.2039C1.8475 67.8915 3.41507 66.0655 4.64674 63.8971H3.47106L0.839772 63.9541C0.727802 63.9541 0.671817 63.8971 0.671817 63.7259V62.8129C0.671817 62.6987 0.727802 62.6417 0.839772 62.6417L3.47106 62.6987H5.09461V62.014C5.09461 60.9869 5.03863 60.3021 4.92666 59.8456C5.48651 59.8456 5.93439 59.9027 6.2703 59.9597C6.43825 60.0168 6.55022 60.0738 6.55022 60.1309C6.55022 60.188 6.49423 60.3021 6.43825 60.4733C6.38226 60.6445 6.32628 61.158 6.32628 62.014V62.6987H6.94211L9.5734 62.6417C9.68537 62.6417 9.74135 62.6987 9.74135 62.8129V63.7259C9.74135 63.84 9.68537 63.9541 9.5734 63.9541L6.94211 63.8971H6.66219C7.50196 65.2095 8.56567 66.2937 9.85332 67.0926ZM44.3399 68.8615C44.06 69.1469 43.8921 69.4892 43.7241 69.8316C43.6681 70.0599 43.5562 70.1169 43.5002 70.1169C43.4442 70.1169 43.3322 70.0599 43.1643 70.0028C40.421 68.5192 38.3496 66.4649 36.894 63.84C36.894 65.3236 36.894 67.0926 36.95 69.1469C37.0059 70.6875 37.0059 71.5435 37.0059 71.7147C37.0059 71.8288 36.95 71.8859 36.838 71.8859H35.7743C35.6623 71.8859 35.6063 71.8288 35.6063 71.7147C35.6063 71.5435 35.6063 70.5164 35.6623 68.5192C35.7183 66.7502 35.7183 65.2095 35.7183 63.8971C34.3747 66.4649 32.3032 68.5192 29.56 70.0599C29.392 70.174 29.28 70.174 29.2241 70.174C29.1121 70.174 29.0001 70.0599 28.8881 69.8316C28.7202 69.5463 28.4963 69.318 28.2163 69.0898C31.1275 67.7773 33.3669 65.7801 34.8785 63.2123H32.3592L29.1121 63.2694C29.0001 63.2694 28.9441 63.2123 28.9441 63.0982V62.1281C28.9441 62.014 29.0001 61.9569 29.1121 61.9569L32.3592 62.014H35.6063V59.275H34.1507L31.2395 59.332C31.1275 59.332 31.0716 59.275 31.0716 59.1608L31.1275 57.1066V54.5387L31.0716 52.5415C31.0716 52.4274 31.1275 52.3703 31.2395 52.3703L34.1507 52.4274H38.6295L41.4847 52.3703C41.5967 52.3703 41.6527 52.4274 41.6527 52.5415L41.5967 54.5387V57.1066L41.6527 59.1608C41.6527 59.275 41.5967 59.332 41.4847 59.332L38.6295 59.275H36.95V62.014H40.477L43.7241 61.9569C43.8361 61.9569 43.8921 62.014 43.8921 62.1281V63.0982C43.8921 63.2123 43.8361 63.2694 43.7241 63.2694L40.477 63.2123H37.5658C38.4615 64.5818 39.4693 65.7231 40.6449 66.6361C41.5967 67.435 42.8284 68.1768 44.3399 68.8615ZM40.2531 58.0766V53.5687H32.4712V58.0766H40.2531ZM29.7279 51.6285C29.7279 51.7427 29.6719 51.8568 29.56 51.9709C29.392 52.085 29.28 52.3703 29.0561 52.8839C28.4963 54.3105 27.9924 55.5659 27.3766 56.7071V68.2338L27.4325 71.8288C27.4325 71.9429 27.3766 72 27.2646 72H26.1449C26.0329 72 25.9769 71.9429 25.9769 71.8288L26.0329 68.2338V62.3564C26.0329 61.6716 26.0329 60.5303 26.0889 58.9896C25.4731 59.9597 24.8013 60.8727 24.1294 61.7287C24.0175 61.8428 23.9055 61.9569 23.8495 61.9569C23.7935 61.9569 23.7375 61.8428 23.6256 61.6716C23.4576 61.2722 23.2337 60.9869 23.0097 60.7586C25.1372 58.3049 26.7047 55.5659 27.7125 52.4845C27.8804 51.8568 27.9924 51.3432 28.0484 50.9438C28.6082 51.115 29.1121 51.2291 29.448 51.4573C29.6719 51.4573 29.7279 51.5715 29.7279 51.6285ZM53.4655 54.5958C53.4095 53.2834 53.4095 52.2562 53.4095 51.5144H55.033V54.5387C56.8805 54.4817 58.728 54.3105 60.5755 54.0822V55.5088C58.896 55.7371 57.0485 55.8512 55.089 55.9083L55.145 59.275C57.2724 59.1608 59.008 59.0467 60.4636 58.8185V60.245C58.784 60.4162 56.9925 60.5874 55.145 60.6445C55.145 61.0439 55.201 61.8428 55.257 63.0411C55.313 63.8971 55.313 64.5248 55.313 65.0383C57.7203 65.9513 59.7358 67.2638 61.4153 68.9757L60.2956 70.4022C58.728 68.6903 57.1045 67.435 55.3689 66.6361V66.8643C55.3689 69.6034 54.0253 70.9729 51.338 70.9729C49.8265 70.9729 48.7068 70.6875 48.0349 70.1169C47.3631 69.6034 47.0272 68.8045 47.0272 67.7203C47.0272 66.6931 47.4751 65.8943 48.3149 65.3236C49.0986 64.753 50.1064 64.4677 51.338 64.4677C52.3458 64.4677 53.1296 64.5247 53.7454 64.6389C53.6894 63.6688 53.6334 62.3564 53.5774 60.5874C51.562 60.6445 49.6025 60.6445 47.5871 60.5874V59.1608C49.4346 59.2179 51.45 59.2179 53.5214 59.1608C53.4655 58.7614 53.4655 58.1337 53.4655 57.3348C53.4655 56.593 53.4095 56.0794 53.4095 55.7371C51.1141 55.7941 49.0427 55.7941 47.1952 55.68V54.2534C49.0986 54.5958 51.1701 54.6529 53.4655 54.5958ZM53.7454 66.3508C52.9616 66.1225 52.2338 66.0654 51.506 66.0654C49.4905 66.0654 48.4828 66.6931 48.4828 67.8915C48.4828 69.0898 49.3786 69.6604 51.1701 69.6604C52.8496 69.6604 53.6894 68.6333 53.6894 66.522V66.3508H53.7454ZM70.1489 59.2179C71.7165 58.2478 73.508 57.2778 75.5235 56.1936L76.3632 57.6772C73.1161 59.275 70.7088 60.6445 69.0292 61.8428C67.1817 63.2123 66.23 64.6959 66.23 66.3508C66.23 68.348 67.7976 69.3751 70.9327 69.3751C72.5563 69.3751 74.4038 69.318 76.4752 69.1469V70.8017C73.8999 70.8587 71.9964 70.9158 70.8207 70.9158C66.6779 70.9158 64.6064 69.3751 64.6064 66.2937C64.6064 63.9541 65.9501 61.8999 68.6373 60.1309C68.0215 57.7343 67.4057 54.9382 66.8458 51.7427L68.5254 51.6856C69.0292 54.3105 69.5331 56.8213 70.1489 59.2179ZM73.452 51.115L74.6277 50.6585C75.0756 51.4573 75.6354 52.7698 76.3073 54.5958L75.0756 55.1094C74.5157 53.4545 73.9559 52.085 73.452 51.115ZM76.0273 50.3161L77.147 49.9166C77.7069 50.8867 78.2667 52.1992 78.7706 53.7399L77.5949 54.2534C77.147 52.6557 76.5872 51.3432 76.0273 50.3161ZM86.2166 57.6772C85.0409 62.6417 83.5853 66.9785 81.9057 70.8017L80.3941 70.174C82.1297 66.522 83.5293 62.4134 84.593 57.7913C83.6413 57.8484 82.2416 57.9625 80.3941 58.1908L80.2822 56.7071C80.842 56.6501 81.6818 56.593 82.7455 56.5359C83.7532 56.4789 84.481 56.4218 84.8729 56.3647C85.1528 55.0523 85.4328 53.5116 85.7687 51.7427L87.3922 51.9709C87.0563 53.7399 86.7764 55.2235 86.4965 56.3077C87.3363 56.2506 88.12 56.1936 88.8478 56.1936C89.7996 56.1936 90.5274 56.5359 90.9193 57.1636C91.3672 57.8484 91.5911 58.9326 91.5911 60.4733C91.5911 64.3536 91.3672 67.1496 90.8633 68.8045C90.6394 69.6034 90.3035 70.174 89.7996 70.4593C89.3517 70.7446 88.7919 70.9158 88.0641 70.9158C87.2803 70.9158 86.4965 70.8587 85.7127 70.7446L85.4328 69.0898C86.2725 69.261 86.9444 69.3751 87.4482 69.3751C88.0081 69.3751 88.4 69.318 88.6799 69.1469C88.9038 68.9757 89.1278 68.6903 89.2397 68.348C89.7436 66.8073 89.9675 64.2965 89.9675 60.7015C89.9675 59.3891 89.8556 58.5331 89.6316 58.1337C89.4077 57.7913 89.0718 57.6201 88.5119 57.6201C87.8401 57.5631 87.0563 57.6201 86.2166 57.6772ZM92.039 54.5958L93.4946 53.911C95.0062 56.4218 96.1259 59.2179 96.9656 62.2993L95.3421 62.9841C94.6143 59.7885 93.4946 56.9924 92.039 54.5958ZM108.219 58.4761L107.323 60.5303C105.307 64.0682 102.788 66.8643 99.7649 69.0327L98.6452 67.7773C102.34 65.0954 105.083 61.5575 106.931 57.2778H99.205V55.7371H107.827L107.659 51.6285H109.394L109.562 55.7371H113.929V57.2778H109.618L110.122 71.2011H108.387L108.051 61.3292L108.219 58.4761ZM116.728 53.2834H129.381C129.325 58.8755 128.373 63.0411 126.414 65.8372C124.79 68.1197 122.215 69.9457 118.688 71.2582L117.736 69.8316C121.207 68.5762 123.726 66.7502 125.182 64.4106C126.694 62.071 127.421 58.8755 127.421 54.8241H116.728V53.2834ZM138.002 61.5004C136.491 62.5846 134.699 63.6688 132.628 64.753L131.676 63.4406C136.043 61.3292 139.514 58.5331 142.201 55.1094L143.601 56.1936C142.369 57.7343 141.082 59.0467 139.682 60.188V71.2582H138.002V61.5004ZM146.232 59.0467L147.016 57.6201C149.703 58.7043 151.551 59.5032 152.391 60.0168L151.551 61.5575C150.319 60.8157 148.528 59.9597 146.232 59.0467ZM148.304 54.0252L149.143 52.6557C151.383 53.5687 153.174 54.4246 154.35 55.2235L153.454 56.7642C152.223 55.8512 150.487 54.9952 148.304 54.0252ZM160.34 55.5659L161.908 56.4789C161.46 58.3049 160.844 60.0738 160.005 61.7287C159.277 63.2694 158.437 64.5248 157.597 65.4378C155.358 67.9485 152.279 69.6034 148.472 70.4593L147.52 68.9757C151.103 68.348 154.014 66.8073 156.254 64.2965C158.157 62.2993 159.501 59.3891 160.34 55.5659ZM169.634 58.9326L176.8 57.506L177.64 58.2478C177.024 60.9298 175.96 63.3835 174.449 65.5519L173.049 64.6959C174.281 62.8699 175.176 61.0439 175.624 59.1608L169.97 60.3021L172.153 70.8587L170.53 71.2582L168.29 60.6445L164.595 61.3863L164.259 59.9597L168.01 59.2179L167.227 55.4517L168.906 55.1094L169.634 58.9326ZM189.956 68.348C192.42 66.6361 194.435 63.9541 195.947 60.3021L197.122 61.8428C195.163 65.8943 192.532 68.9757 189.229 71.0299L188.221 70.5164V52.3133H189.956V68.348ZM185.086 52.4845C185.086 56.9354 185.03 60.1309 184.862 62.071C184.75 63.7259 184.526 65.0383 184.19 66.0084C183.574 67.9485 182.454 69.6034 180.831 71.0299L179.487 69.9457C180.943 68.8615 182.007 67.3208 182.622 65.3236C182.902 64.3536 183.07 62.7558 183.182 60.5303C183.238 58.8185 183.294 56.1365 183.294 52.4845H185.086ZM199.306 52.8839H214.254C213.974 54.9952 213.526 56.7071 212.854 58.0766C212.238 59.3891 211.287 60.5303 210.111 61.6145L208.767 60.4733C209.775 59.6173 210.559 58.6473 211.175 57.506C211.734 56.4789 212.07 55.5088 212.126 54.4817H199.306V52.8839ZM199.978 69.7745C201.937 68.8045 203.337 67.6061 204.12 66.2366C204.96 64.753 205.352 62.6987 205.352 60.0168V56.3077H207.088V60.0738C207.088 63.2694 206.472 65.7801 205.24 67.6062C204.344 68.9186 202.945 70.0599 201.041 71.087L199.978 69.7745ZM229.482 54.8811C229.314 59.1608 228.53 62.4134 227.242 64.8101C225.619 67.7203 222.819 69.8887 218.844 71.3152L217.893 69.8887C221.364 68.6333 223.883 66.8073 225.339 64.4677C226.85 62.1281 227.578 58.9326 227.578 54.8811H216.885V53.2834H227.914C227.802 52.998 227.746 52.7127 227.746 52.3703C227.746 51.5715 228.026 50.9438 228.586 50.4302C229.09 49.9737 229.65 49.7455 230.321 49.7455C231.105 49.7455 231.721 50.0308 232.225 50.6014C232.673 51.115 232.897 51.6856 232.897 52.3703C232.897 53.1692 232.617 53.7969 232.057 54.3105C231.553 54.767 230.993 54.9952 230.321 54.9952C230.041 54.9952 229.762 54.9382 229.482 54.8811ZM230.321 50.7726C229.818 50.7726 229.426 50.9438 229.146 51.2862C228.866 51.5715 228.754 51.9709 228.754 52.3703C228.754 52.8839 228.922 53.2834 229.258 53.5687C229.538 53.854 229.929 53.9681 230.321 53.9681C230.825 53.9681 231.217 53.7969 231.497 53.4545C231.777 53.1692 231.889 52.7698 231.889 52.3703C231.889 51.8568 231.721 51.4573 231.385 51.172C231.049 50.8867 230.713 50.7726 230.321 50.7726ZM237.823 52.3133V63.7829H236.032V52.3133H237.823ZM237.152 69.8316C239.895 69.2039 241.798 68.2338 242.862 66.8073C243.814 65.4378 244.318 63.4406 244.318 60.7015V52.1421H246.109V60.9298C246.109 64.2965 245.381 66.8073 243.87 68.405C242.638 69.7175 240.679 70.6875 237.991 71.2582L237.152 69.8316Z" fill="white"/>
</svg>
