<svg width="80" height="78" viewBox="0 0 80 78" fill="none" xmlns="http://www.w3.org/2000/svg">
<path d="M58.7221 18.0513C59.9392 18.0725 61.1152 17.611 61.9929 16.7677C62.8707 15.9243 63.3789 14.7679 63.4064 13.551V4.5083C63.3526 3.30208 62.8356 2.16309 61.963 1.32855C61.0905 0.494013 59.9296 0.0281372 58.7221 0.0281372C57.5147 0.0281372 56.3539 0.494013 55.4813 1.32855C54.6087 2.16309 54.0917 3.30208 54.0379 4.5083V13.551C54.066 14.7677 54.5744 15.9239 55.452 16.7671C56.3297 17.6103 57.5053 18.0719 58.7221 18.0513Z" fill="#145290"/>
<path d="M71.3808 9.0501H68.0951V13.5504C68.0095 15.9783 66.9849 18.2783 65.2371 19.9656C63.4893 21.6529 61.1548 22.596 58.7254 22.596C56.296 22.596 53.9615 21.6529 52.2137 19.9656C50.4659 18.2783 49.4413 15.9783 49.3557 13.5504V9.0501H30.614V13.5504C30.5373 15.9846 29.5164 18.2936 27.7674 19.9883C26.0184 21.6831 23.6786 22.6306 21.2432 22.6306C18.8078 22.6306 16.468 21.6831 14.719 19.9883C12.97 18.2936 11.9491 15.9846 11.8724 13.5504V9.0501H8.6099C7.50105 9.02665 6.39847 9.22233 5.36529 9.6256C4.3321 10.0289 3.3886 10.632 2.58883 11.4004C1.78907 12.1688 1.14873 13.0872 0.704499 14.1035C0.260267 15.1197 0.0208689 16.2138 0 17.3227V27.4196H79.9605V17.3227C79.9195 15.0881 78.9926 12.9611 77.3836 11.4098C75.7747 9.85843 73.6155 9.00962 71.3808 9.0501V9.0501Z" fill="#145290"/>
<path d="M21.2384 18.0513C22.4553 18.0719 23.6309 17.6103 24.5086 16.7671C25.3862 15.9239 25.8946 14.7677 25.9227 13.551V4.50828C25.8759 3.29693 25.3618 2.15057 24.4882 1.31007C23.6147 0.469577 22.4495 0 21.2373 0C20.025 0 18.8599 0.469577 17.9863 1.31007C17.1127 2.15057 16.5986 3.29693 16.5518 4.50828V13.551C16.5799 14.7681 17.0886 15.9247 17.9668 16.7679C18.8449 17.6112 20.0211 18.0725 21.2384 18.0513V18.0513Z" fill="#145290"/>
<path d="M0 68.7823C0.049494 71.0195 0.983224 73.1457 2.59684 74.6961C4.21045 76.2465 6.37253 77.0946 8.6099 77.0546H71.3901C73.6266 77.0915 75.7869 76.2424 77.3999 74.6927C79.0128 73.143 79.9475 71.0185 80 68.7823V31.9201H0V68.7823Z" fill="#145290"/>
</svg>
