<svg width="28" height="25" viewBox="0 0 28 25" fill="none" xmlns="http://www.w3.org/2000/svg">
<path d="M14 18.0001C16.2091 18.0001 18 16.2092 18 14.0001C18 11.7909 16.2091 10.0001 14 10.0001C11.7909 10.0001 10 11.7909 10 14.0001C10 16.2092 11.7909 18.0001 14 18.0001Z" fill="#145290"/>
<path d="M24.6662 3.33238H20.4393L18.7869 1.53893C18.5389 1.26498 18.2363 1.04586 17.8987 0.895575C17.5611 0.745293 17.1958 0.667167 16.8262 0.666199H11.1724C10.8011 0.668443 10.4343 0.747084 10.0947 0.897228C9.75511 1.04737 9.45007 1.2658 9.19856 1.53893L7.55929 3.33238H3.33238C2.62572 3.33468 1.94869 3.61652 1.44914 4.11634C0.949586 4.61617 0.668116 5.29336 0.666199 6.00002V22C0.6685 22.7064 0.950139 23.3832 1.44965 23.8828C1.94916 24.3823 2.62597 24.6639 3.33238 24.6662H24.6662C25.3726 24.6639 26.0494 24.3823 26.5489 23.8828C27.0484 23.3832 27.3301 22.7064 27.3324 22V6.00002C27.3305 5.29336 27.049 4.61617 26.5494 4.11634C26.0499 3.61652 25.3729 3.33468 24.6662 3.33238ZM14 20.6662C12.6816 20.6662 11.3927 20.2752 10.2965 19.5427C9.20024 18.8103 8.34581 17.7691 7.84127 16.5511C7.33672 15.333 7.20471 13.9926 7.46192 12.6995C7.71914 11.4064 8.35403 10.2186 9.28631 9.28631C10.2186 8.35403 11.4064 7.71914 12.6995 7.46192C13.9926 7.20471 15.333 7.33672 16.5511 7.84127C17.7691 8.34582 18.8103 9.20024 19.5427 10.2965C20.2752 11.3927 20.6662 12.6816 20.6662 14C20.6654 15.7678 19.9629 17.4629 18.7129 18.7129C17.4629 19.9629 15.7678 20.6654 14 20.6662V20.6662Z" fill="#145290"/>
</svg>
