<svg width="32" height="28" viewBox="0 0 32 28" fill="none" xmlns="http://www.w3.org/2000/svg">
<path d="M29.5325 2.4675C28.7506 1.68523 27.8222 1.06468 26.8004 0.641297C25.7786 0.217915 24.6834 0 23.5774 0C22.4714 0 21.3762 0.217915 20.3544 0.641297C19.3326 1.06468 18.4042 1.68523 17.6223 2.4675L15.9996 4.09022L14.3769 2.4675C12.7975 0.88811 10.6554 0.000818652 8.42177 0.000818669C6.18818 0.000818686 4.04607 0.88811 2.46668 2.4675C0.887291 4.04689 1.66416e-08 6.189 0 8.42259C-1.66416e-08 10.6562 0.887291 12.7983 2.46668 14.3777L4.0894 16.0004L15.9996 27.9106L27.9098 16.0004L29.5325 14.3777C30.3148 13.5958 30.9353 12.6674 31.3587 11.6456C31.7821 10.6238 32 9.52863 32 8.42259C32 7.31656 31.7821 6.22136 31.3587 5.19956C30.9353 4.17777 30.3148 3.2494 29.5325 2.4675Z" fill="#145290"/>
</svg>
