<svg width="24" height="24" viewBox="0 0 24 24" fill="none" xmlns="http://www.w3.org/2000/svg">
<path fill-rule="evenodd" clip-rule="evenodd" d="M12.7031 0.703125C12.7031 1.09219 12.3891 1.40625 12 1.40625C11.6109 1.40625 11.2969 1.09219 11.2969 0.703125C11.2969 0.314062 11.6109 0 12 0C12.3891 0 12.7031 0.314062 12.7031 0.703125Z" fill="#145290"/>
<path fill-rule="evenodd" clip-rule="evenodd" d="M9.77832 1.08752C9.77832 1.47659 9.46426 1.79065 9.0752 1.79065C8.68613 1.79065 8.37207 1.47659 8.37207 1.08752C8.37207 0.698462 8.68613 0.384399 9.0752 0.384399C9.46426 0.384399 9.77832 0.698462 9.77832 1.08752Z" fill="#145290"/>
<path fill-rule="evenodd" clip-rule="evenodd" d="M1.79053 9.07501C1.79053 9.46407 1.47646 9.77814 1.0874 9.77814C0.69834 9.77814 0.384277 9.46407 0.384277 9.07501C0.384277 8.68595 0.69834 8.37189 1.0874 8.37189C1.47646 8.37189 1.79053 8.68595 1.79053 9.07501Z" fill="#145290"/>
<path fill-rule="evenodd" clip-rule="evenodd" d="M2.92041 6.35156C2.92041 6.74063 2.60635 7.05469 2.21729 7.05469C1.82822 7.05469 1.51416 6.74063 1.51416 6.35156C1.51416 5.9625 1.82822 5.64844 2.21729 5.64844C2.60635 5.64844 2.92041 5.9625 2.92041 6.35156Z" fill="#145290"/>
<path fill-rule="evenodd" clip-rule="evenodd" d="M7.05469 2.21716C7.05469 2.60623 6.74063 2.92029 6.35156 2.92029C5.9625 2.92029 5.64844 2.60623 5.64844 2.21716C5.64844 1.8281 5.9625 1.51404 6.35156 1.51404C6.74063 1.51404 7.05469 1.8281 7.05469 2.21716Z" fill="#145290"/>
<path fill-rule="evenodd" clip-rule="evenodd" d="M4.71582 4.01251C4.71582 4.40157 4.40176 4.71564 4.0127 4.71564C3.62363 4.71564 3.30957 4.40157 3.30957 4.01251C3.30957 3.62345 3.62363 3.30939 4.0127 3.30939C4.40176 3.30939 4.71582 3.62345 4.71582 4.01251Z" fill="#145290"/>
<path fill-rule="evenodd" clip-rule="evenodd" d="M12.7031 23.2969C12.7031 23.6859 12.3891 24 12 24C11.6109 24 11.2969 23.6859 11.2969 23.2969C11.2969 22.9078 11.6109 22.5938 12 22.5938C12.3891 22.5938 12.7031 22.9078 12.7031 23.2969Z" fill="#145290"/>
<path fill-rule="evenodd" clip-rule="evenodd" d="M1.40625 12C1.40625 12.3891 1.09219 12.7031 0.703125 12.7031C0.314062 12.7031 0 12.3891 0 12C0 11.6109 0.314062 11.2969 0.703125 11.2969C1.09219 11.2969 1.40625 11.6109 1.40625 12Z" fill="#145290"/>
<path fill-rule="evenodd" clip-rule="evenodd" d="M1.79053 14.925C1.79053 15.3141 1.47646 15.6281 1.0874 15.6281C0.69834 15.6281 0.384277 15.3141 0.384277 14.925C0.384277 14.5359 0.69834 14.2219 1.0874 14.2219C1.47646 14.2219 1.79053 14.5359 1.79053 14.925Z" fill="#145290"/>
<path fill-rule="evenodd" clip-rule="evenodd" d="M9.77832 22.9124C9.77832 23.3015 9.46426 23.6156 9.0752 23.6156C8.68613 23.6156 8.37207 23.3015 8.37207 22.9124C8.37207 22.5234 8.68613 22.2093 9.0752 22.2093C9.46426 22.2093 9.77832 22.5234 9.77832 22.9124Z" fill="#145290"/>
<path fill-rule="evenodd" clip-rule="evenodd" d="M7.05469 21.7829C7.05469 22.1719 6.74063 22.486 6.35156 22.486C5.9625 22.486 5.64844 22.1719 5.64844 21.7829C5.64844 21.3938 5.9625 21.0797 6.35156 21.0797C6.74063 21.0797 7.05469 21.3938 7.05469 21.7829Z" fill="#145290"/>
<path fill-rule="evenodd" clip-rule="evenodd" d="M2.92041 17.6484C2.92041 18.0375 2.60635 18.3516 2.21729 18.3516C1.82822 18.3516 1.51416 18.0375 1.51416 17.6484C1.51416 17.2594 1.82822 16.9453 2.21729 16.9453C2.60635 16.9453 2.92041 17.2594 2.92041 17.6484Z" fill="#145290"/>
<path fill-rule="evenodd" clip-rule="evenodd" d="M4.71582 19.9875C4.71582 20.3766 4.40176 20.6906 4.0127 20.6906C3.62363 20.6906 3.30957 20.3766 3.30957 19.9875C3.30957 19.5984 3.62363 19.2844 4.0127 19.2844C4.40176 19.2844 4.71582 19.5984 4.71582 19.9875Z" fill="#145290"/>
<path fill-rule="evenodd" clip-rule="evenodd" d="M24 12C24 12.3891 23.6859 12.7031 23.2969 12.7031C22.9078 12.7031 22.5938 12.3891 22.5938 12C22.5938 11.6109 22.9078 11.2969 23.2969 11.2969C23.6859 11.2969 24 11.6109 24 12Z" fill="#145290"/>
<path fill-rule="evenodd" clip-rule="evenodd" d="M23.6157 9.07501C23.6157 9.46407 23.3017 9.77814 22.9126 9.77814C22.5235 9.77814 22.2095 9.46407 22.2095 9.07501C22.2095 8.68595 22.5235 8.37189 22.9126 8.37189C23.3017 8.37189 23.6157 8.68595 23.6157 9.07501Z" fill="#145290"/>
<path fill-rule="evenodd" clip-rule="evenodd" d="M15.6279 1.08752C15.6279 1.47659 15.3139 1.79065 14.9248 1.79065C14.5357 1.79065 14.2217 1.47659 14.2217 1.08752C14.2217 0.698462 14.5357 0.384399 14.9248 0.384399C15.3139 0.384399 15.6279 0.698462 15.6279 1.08752Z" fill="#145290"/>
<path fill-rule="evenodd" clip-rule="evenodd" d="M18.3516 2.21716C18.3516 2.60623 18.0375 2.92029 17.6484 2.92029C17.2594 2.92029 16.9453 2.60623 16.9453 2.21716C16.9453 1.8281 17.2594 1.51404 17.6484 1.51404C18.0375 1.51404 18.3516 1.8281 18.3516 2.21716Z" fill="#145290"/>
<path fill-rule="evenodd" clip-rule="evenodd" d="M22.4858 6.35156C22.4858 6.74063 22.1718 7.05469 21.7827 7.05469C21.3937 7.05469 21.0796 6.74063 21.0796 6.35156C21.0796 5.9625 21.3937 5.64844 21.7827 5.64844C22.1718 5.64844 22.4858 5.9625 22.4858 6.35156Z" fill="#145290"/>
<path fill-rule="evenodd" clip-rule="evenodd" d="M20.6904 4.01251C20.6904 4.40157 20.3764 4.71564 19.9873 4.71564C19.5982 4.71564 19.2842 4.40157 19.2842 4.01251C19.2842 3.62345 19.5982 3.30939 19.9873 3.30939C20.3764 3.30939 20.6904 3.62345 20.6904 4.01251Z" fill="#145290"/>
<path fill-rule="evenodd" clip-rule="evenodd" d="M15.6279 22.9124C15.6279 23.3015 15.3139 23.6156 14.9248 23.6156C14.5357 23.6156 14.2217 23.3015 14.2217 22.9124C14.2217 22.5234 14.5357 22.2093 14.9248 22.2093C15.3139 22.2093 15.6279 22.5234 15.6279 22.9124Z" fill="#145290"/>
<path fill-rule="evenodd" clip-rule="evenodd" d="M23.6157 14.925C23.6157 15.3141 23.3017 15.6281 22.9126 15.6281C22.5235 15.6281 22.2095 15.3141 22.2095 14.925C22.2095 14.5359 22.5235 14.2219 22.9126 14.2219C23.3017 14.2219 23.6157 14.5359 23.6157 14.925Z" fill="#145290"/>
<path fill-rule="evenodd" clip-rule="evenodd" d="M22.4858 17.6484C22.4858 18.0375 22.1718 18.3516 21.7827 18.3516C21.3937 18.3516 21.0796 18.0375 21.0796 17.6484C21.0796 17.2594 21.3937 16.9453 21.7827 16.9453C22.1718 16.9453 22.4858 17.2594 22.4858 17.6484Z" fill="#145290"/>
<path fill-rule="evenodd" clip-rule="evenodd" d="M18.3516 21.7829C18.3516 22.1719 18.0375 22.486 17.6484 22.486C17.2594 22.486 16.9453 22.1719 16.9453 21.7829C16.9453 21.3938 17.2594 21.0797 17.6484 21.0797C18.0375 21.0797 18.3516 21.3938 18.3516 21.7829Z" fill="#145290"/>
<path fill-rule="evenodd" clip-rule="evenodd" d="M20.6904 19.9875C20.6904 20.3766 20.3764 20.6906 19.9873 20.6906C19.5982 20.6906 19.2842 20.3766 19.2842 19.9875C19.2842 19.5984 19.5982 19.2844 19.9873 19.2844C20.3764 19.2844 20.6904 19.5984 20.6904 19.9875Z" fill="#145290"/>
<path fill-rule="evenodd" clip-rule="evenodd" d="M12 8.95312C10.3219 8.95312 8.95312 10.3219 8.95312 12C8.95312 13.6781 10.3219 15.0469 12 15.0469C13.6781 15.0469 15.0469 13.6781 15.0469 12C15.0469 10.3219 13.6781 8.95312 12 8.95312Z" fill="#145290"/>
<path fill-rule="evenodd" clip-rule="evenodd" d="M12 3.79688C7.47656 3.79688 3.79688 7.47656 3.79688 12C3.79688 16.5234 7.47656 20.2031 12 20.2031C16.5234 20.2031 20.2031 16.5234 20.2031 12C20.2031 7.47656 16.5234 3.79688 12 3.79688ZM12 16.4531C9.54375 16.4531 7.54688 14.4563 7.54688 12C7.54688 9.54375 9.54375 7.54688 12 7.54688C14.4563 7.54688 16.4531 9.54375 16.4531 12C16.4531 14.4563 14.4563 16.4531 12 16.4531Z" fill="#145290"/>
</svg>
