<svg width="70" height="66" viewBox="0 0 70 66" fill="none" xmlns="http://www.w3.org/2000/svg">
<path d="M63.5721 14.6475H38.9448L51.4234 2.34172L49.1603 0.0785811L36.2101 12.793L23.26 0L21.0126 2.24742L33.4755 14.5689H6.44364C2.9075 14.5689 0 17.4607 0 21.0126V58.8258C0 62.3619 2.89178 65.2694 6.44364 65.2694H63.5721C67.1082 65.2694 70.0157 62.3776 70.0157 58.8258V20.9969C70 17.5393 67.1082 14.6475 63.5721 14.6475ZM43.4553 50.5276C43.4553 53.1837 41.2865 55.3525 38.6304 55.3525H13.6731C11.0171 55.3525 8.84822 53.1837 8.84822 50.5276V29.6093C8.84822 26.9533 11.0171 24.7845 13.6731 24.7845H38.6147C41.2708 24.7845 43.4396 26.9533 43.4396 29.6093V50.5276H43.4553ZM55.5254 53.4351C52.3821 53.4351 49.899 50.9362 49.899 47.8087C49.899 44.6655 52.3978 42.1823 55.5254 42.1823C58.6686 42.1823 61.1518 44.6812 61.1518 47.8087C61.1518 50.9362 58.6529 53.4351 55.5254 53.4351ZM61.9533 37.0903H49.0817V33.8684H61.9533V37.0903ZM61.9533 29.0436H49.0817V25.8217H61.9533V29.0436Z" fill="white"/>
</svg>
