<svg width="63" height="65" viewBox="0 0 63 65" fill="none" xmlns="http://www.w3.org/2000/svg">
<path d="M37.9209 54.1709C37.9209 60.1504 33.0713 65 27.0918 65C21.1123 65 16.25 60.1504 16.25 54.1709C16.25 48.1914 21.0996 43.3418 27.0791 43.3418C33.0586 43.3418 37.9209 48.1787 37.9209 54.1709Z" fill="white"/>
<path d="M46.0586 32.2842C36.8799 30.9766 29.7832 23.0801 29.7832 13.5459C29.7832 10.8418 30.3672 8.26465 31.3828 5.94141C29.999 5.61133 28.5518 5.4209 27.0664 5.4209C16.6309 5.4209 8.125 13.9268 8.125 24.375V31.9287C8.125 37.2861 5.77637 42.3516 1.66309 45.8301C0.609375 46.7314 0 48.0391 0 49.4228C0 52.0381 2.12012 54.1582 4.73535 54.1582H49.4229C52.0381 54.1582 54.1582 52.0381 54.1582 49.4228C54.1582 48.0391 53.5488 46.7187 52.4697 45.8047C48.4834 42.415 46.1602 37.5146 46.0586 32.2842Z" fill="white"/>
<path d="M62.2961 13.5459C62.2961 21.0234 56.2278 27.0918 48.7502 27.0918C41.2727 27.0918 35.2043 21.0234 35.2043 13.5459C35.2043 6.06836 41.2727 0 48.7502 0C56.2278 0 62.2961 6.06836 62.2961 13.5459Z" fill="white"/>
</svg>
