<svg width="32" height="19" viewBox="0 0 32 19" fill="none" xmlns="http://www.w3.org/2000/svg">
<path d="M7.73333 1.49286C6.66667 0.407143 2.13333 0.135714 0.666667 0C0.533333 0 0.4 0 0.266667 0.135714C0.133333 0.271429 0 0.542857 0 0.678572V12.8929C0 13.3 0.266667 13.5714 0.666667 13.5714H4.66667C4.93333 13.5714 5.2 13.4357 5.33333 13.1643C5.33333 12.7571 7.73333 5.56429 8 2.03571C8 1.9 8 1.62857 7.73333 1.49286Z" fill="white"/>
<path d="M22.0001 4.74998C20.6667 4.34283 19.4667 3.79998 18.4001 3.39283C16.0001 2.30712 14.9334 2.84998 12.8001 5.0214C11.8667 5.9714 11.2001 7.32855 11.3334 7.8714C11.3334 8.00712 11.3334 8.00712 11.6001 8.14283C12.2667 8.41426 13.2001 8.54997 14.1334 7.05712C14.2667 6.9214 14.4001 6.78569 14.6667 6.78569C15.0667 6.78569 15.2001 6.64998 15.6001 6.51426C15.8667 6.37855 16.1334 6.24283 16.5334 6.10712C16.6667 6.10712 16.6667 6.10712 16.8001 6.10712C16.9334 6.10712 17.2001 6.24283 17.3334 6.24283C18.0001 6.9214 19.2001 7.8714 20.4001 8.95712C22.2667 10.45 24.1334 12.0785 25.0667 13.3H25.2001C24.2667 10.5857 22.6667 5.9714 22.0001 4.74998Z" fill="white"/>
<path d="M31.3332 1.35712C26.1332 1.35712 23.1998 2.71426 23.0665 2.71426C22.9332 2.84997 22.7998 2.98569 22.6665 3.1214C22.6665 3.25712 22.6665 3.52855 22.7998 3.66426C23.5998 5.0214 26.2665 12.4857 26.6665 14.3857C26.7998 14.6571 27.0665 14.9285 27.3332 14.9285H31.3332C31.7332 14.9285 31.9998 14.6571 31.9998 14.25V2.03569C31.9998 1.62855 31.7332 1.35712 31.3332 1.35712Z" fill="white"/>
<path d="M24.1331 14.6571C23.5998 13.4357 21.3331 11.6714 19.3331 10.0428C18.2664 9.09284 17.1998 8.27855 16.3998 7.59998C16.2664 7.7357 15.9998 7.7357 15.9998 7.87141C15.5998 8.00713 15.4664 8.14284 14.9331 8.14284C13.8664 9.49998 12.5331 10.0428 11.0664 9.49998C10.3998 9.36427 9.99977 8.82141 9.86644 8.27855C9.59977 6.92141 10.7998 5.02141 11.7331 4.07141H9.06644C8.53311 6.7857 7.59977 10.3143 6.93311 12.2143C7.46644 12.7571 7.99977 13.4357 8.39977 13.7071C10.9331 15.8786 13.8664 18.05 14.3998 18.4571C14.7998 18.7286 15.5998 19 15.9998 19C16.1331 19 16.2664 19 16.3998 19L14.2664 16.8286C13.9998 16.5571 13.9998 16.15 14.2664 15.8786C14.5331 15.6071 14.9331 15.6071 15.1998 15.8786L17.8664 18.5928C18.1331 18.8643 18.3998 18.7286 18.6664 18.7286C19.0664 18.5928 19.1998 18.3214 19.3331 17.9143L16.2664 14.7928C15.9998 14.5214 15.9998 14.1143 16.2664 13.8428C16.5331 13.5714 16.9331 13.5714 17.1998 13.8428L20.5331 17.2357C20.6664 17.3714 21.1998 17.3714 21.5998 17.2357C21.7331 17.1 21.9998 16.9643 22.1331 16.6928L18.3998 12.8928C18.1331 12.6214 18.1331 12.2143 18.3998 11.9428C18.6664 11.6714 19.0664 11.6714 19.3331 11.9428L23.1998 15.8786C23.4664 16.0143 23.7331 15.8786 23.9998 15.7428C24.1331 15.6071 24.3998 15.2 24.1331 14.6571Z" fill="white"/>
</svg>
