<svg width="30" height="18" viewBox="0 0 70 18" fill="none" xmlns="http://www.w3.org/2000/svg">
<path d="M43.75 8.75C43.75 13.5807 39.8307 17.5 35 17.5C30.1693 17.5 26.25 13.5807 26.25 8.75C26.25 3.91927 30.1693 0 35 0C39.8307 0 43.75 3.91927 43.75 8.75Z" fill="white"/>
<path d="M17.5 8.75C17.5 13.5807 13.5807 17.5 8.75 17.5C3.91927 17.5 0 13.5807 0 8.75C0 3.91927 3.91927 0 8.75 0C13.5807 0 17.5 3.91927 17.5 8.75Z" fill="white"/>
<path d="M70 8.75C70 13.5807 66.0807 17.5 61.25 17.5C56.4193 17.5 52.5 13.5807 52.5 8.75C52.5 3.91927 56.4193 0 61.25 0C66.0807 0 70 3.91927 70 8.75Z" fill="white"/>
</svg>
