<svg width="28" height="22" viewBox="0 0 28 22" fill="none" xmlns="http://www.w3.org/2000/svg">
<path d="M24.7308 5.53653C24.7308 5.77573 24.7308 6.01493 24.7308 6.25414C24.7308 13.4302 19.2292 21.8023 9.18264 21.8023C6.073 21.8023 3.20257 20.9252 0.810547 19.3305C1.20922 19.4103 1.68762 19.4103 2.08629 19.4103C4.63779 19.4103 7.02982 18.5332 8.86371 17.098C6.47168 17.0183 4.47832 15.5033 3.76071 13.2707C4.07965 13.3505 4.39859 13.3505 4.79726 13.3505C5.27566 13.3505 5.75407 13.2707 6.23248 13.191C3.76071 12.7126 1.84709 10.48 1.84709 7.84882V7.76909C2.5647 8.16776 3.44178 8.40696 4.31885 8.48669C2.88364 7.52988 1.92682 5.85547 1.92682 3.94184C1.92682 2.9053 2.16603 2.02822 2.64443 1.23088C5.3554 4.49998 9.34211 6.73254 13.887 6.89201C13.8072 6.49334 13.7275 6.09467 13.7275 5.61626C13.7275 2.58636 16.1993 0.194336 19.1494 0.194336C20.7441 0.194336 22.0996 0.83221 23.1361 1.94849C24.4119 1.70929 25.5282 1.23088 26.5647 0.593007C26.166 1.86875 25.289 2.9053 24.1727 3.62291C25.289 3.46344 26.3255 3.22424 27.2823 2.74583C26.7242 3.78238 25.7674 4.73919 24.7308 5.53653Z" fill="white"/>
</svg>
