<svg width="32" height="22" viewBox="0 0 32 22" fill="none" xmlns="http://www.w3.org/2000/svg">
<path d="M13.6942 21.8823C7.71417 21.8026 5.72081 21.6431 4.44506 21.4039C3.56799 21.2445 2.85038 20.8458 2.29224 20.2876C1.89357 19.889 1.57463 19.2511 1.25569 18.374C1.01649 17.6564 0.936757 17.0185 0.857023 15.5036C0.697554 12.1548 0.61782 9.36406 0.857023 6.33416C1.01649 4.65974 1.17595 2.58665 2.37197 1.47037C3.00984 0.912233 3.64772 0.593296 4.44506 0.433827C5.64108 0.194625 10.9035 0.0351562 16.2457 0.0351562C21.6677 0.0351562 26.8504 0.194625 28.0464 0.433827C29.0032 0.593296 29.96 1.15144 30.5181 1.86904C31.7142 3.70293 31.7142 5.93549 31.7939 7.68964C31.8736 8.56672 31.8736 13.3508 31.7939 14.1481C31.6344 16.9388 31.475 17.9754 31.0763 18.9322C30.8371 19.57 30.5979 19.889 30.1992 20.2876C29.6411 20.8458 28.8437 21.2445 28.0464 21.4039C23.0231 21.8823 18.6378 21.9621 13.6942 21.8823ZM21.5082 10.6398C18.6377 9.12486 15.9268 7.68964 13.1361 6.25443V15.0252C16.0863 13.3508 19.1959 11.9156 21.5082 10.6398Z" fill="white"/>
</svg>
